# MagicaVoxel @ Ephtracy

# group
o 

# material
mtllib wheels.mtl
usemtl palette

# normals
vn -1 0 0
vn 1 0 0
vn 0 0 1
vn 0 0 -1
vn 0 -1 0
vn 0 1 0

# texcoords
vt 0.845703 0.5
vt 0.861328 0.5
vt 0.962891 0.5
vt 0.966797 0.5
vt 0.970703 0.5
vt 0.990234 0.5

# verts
v 2.2 0.9 1.7
v 2.2 0.9 1.2
v 2.2 1.4 1.7
v 2.2 1.4 1.2
v 2.3 0.8 1.7
v 2.3 0.8 1.2
v 2.3 0.9 1.7
v 2.3 0.9 1.2
v 2.3 1.4 1.7
v 2.3 1.4 1.2
v 2.3 1.5 1.7
v 2.3 1.5 1.2
v 2.4 0.7 1.7
v 2.4 0.7 1.2
v 2.4 0.8 1.7
v 2.4 0.8 1.2
v 2.4 1.5 1.6
v 2.4 1.5 1.2
v 2.4 1.6 1.6
v 2.4 1.6 1.2
v 2.5 0.6 1.7
v 2.5 0.6 1.2
v 2.5 0.7 1.7
v 2.5 0.7 1.2
v 2.5 1 1.8
v 2.5 1 1.7
v 2.5 1.3 1.8
v 2.5 1.3 1.7
v 2.5 1.5 1.7
v 2.5 1.5 1.6
v 2.5 1.6 1.6
v 2.5 1.6 1.2
v 2.5 1.7 1.7
v 2.5 1.7 1.2
v 2.6 0.9 1.8
v 2.6 0.9 1.7
v 2.6 1 1.8
v 2.6 1 1.7
v 2.6 1.3 1.8
v 2.6 1.3 1.7
v 2.6 1.4 1.8
v 2.6 1.4 1.7
v 2.8 1.1 1.6
v 2.8 1.1 1.5
v 2.8 1.2 1.6
v 2.8 1.2 1.5
v 2.7 1.1 1.6
v 2.7 1.1 1.5
v 2.7 1.2 1.6
v 2.7 1.2 1.5
v 2.9 0.9 1.8
v 2.9 0.9 1.7
v 2.9 1 1.8
v 2.9 1 1.7
v 2.9 1.3 1.8
v 2.9 1.3 1.7
v 2.9 1.4 1.8
v 2.9 1.4 1.7
v 3 0.6 1.7
v 3 0.6 1.2
v 3 0.7 1.7
v 3 0.7 1.2
v 3 1 1.8
v 3 1 1.7
v 3 1.3 1.8
v 3 1.3 1.7
v 3 1.6 1.7
v 3 1.6 1.2
v 3 1.7 1.7
v 3 1.7 1.2
v 3.1 0.7 1.7
v 3.1 0.7 1.2
v 3.1 0.8 1.7
v 3.1 0.8 1.2
v 3.1 1.5 1.7
v 3.1 1.5 1.2
v 3.1 1.6 1.7
v 3.1 1.6 1.2
v 3.2 0.8 1.7
v 3.2 0.8 1.2
v 3.2 0.9 1.7
v 3.2 0.9 1.2
v 3.2 1.4 1.7
v 3.2 1.4 1.2
v 3.2 1.5 1.7
v 3.2 1.5 1.2
v 3.3 0.9 1.7
v 3.3 0.9 1.2
v 3.3 1.4 1.7
v 3.3 1.4 1.2
v 2.5 1 1.8
v 2.5 1.3 1.8
v 2.6 0.9 1.8
v 2.6 1 1.8
v 2.6 1.1 1.8
v 2.6 1.2 1.8
v 2.6 1.3 1.8
v 2.6 1.4 1.8
v 2.7 1 1.8
v 2.7 1.1 1.8
v 2.7 1.2 1.8
v 2.7 1.3 1.8
v 2.8 1 1.8
v 2.8 1.1 1.8
v 2.8 1.2 1.8
v 2.8 1.3 1.8
v 2.9 0.9 1.8
v 2.9 1 1.8
v 2.9 1.1 1.8
v 2.9 1.2 1.8
v 2.9 1.3 1.8
v 2.9 1.4 1.8
v 3 1 1.8
v 3 1.3 1.8
v 2.2 0.9 1.7
v 2.2 1.4 1.7
v 2.3 0.8 1.7
v 2.3 0.9 1.7
v 2.3 1.4 1.7
v 2.3 1.5 1.7
v 2.4 0.7 1.7
v 2.4 0.8 1.7
v 2.4 1 1.7
v 2.4 1.3 1.7
v 2.5 0.6 1.7
v 2.5 0.7 1.7
v 2.5 0.9 1.7
v 2.5 1 1.7
v 2.5 1.3 1.7
v 2.5 1.4 1.7
v 2.5 1.5 1.7
v 2.5 1.7 1.7
v 2.6 0.8 1.7
v 2.6 0.9 1.7
v 2.6 1 1.7
v 2.6 1.3 1.7
v 2.6 1.4 1.7
v 2.6 1.5 1.7
v 2.9 0.8 1.7
v 2.9 0.9 1.7
v 2.9 1 1.7
v 2.9 1.3 1.7
v 2.9 1.4 1.7
v 2.9 1.5 1.7
v 3 0.6 1.7
v 3 0.7 1.7
v 3 0.9 1.7
v 3 1 1.7
v 3 1.3 1.7
v 3 1.4 1.7
v 3 1.6 1.7
v 3 1.7 1.7
v 3.1 0.7 1.7
v 3.1 0.8 1.7
v 3.1 1 1.7
v 3.1 1.3 1.7
v 3.1 1.5 1.7
v 3.1 1.6 1.7
v 3.2 0.8 1.7
v 3.2 0.9 1.7
v 3.2 1.4 1.7
v 3.2 1.5 1.7
v 3.3 0.9 1.7
v 3.3 1.4 1.7
v 2.4 1.5 1.6
v 2.4 1.6 1.6
v 2.5 1.5 1.6
v 2.5 1.6 1.6
v 2.7 1.1 1.5
v 2.7 1.2 1.5
v 2.8 1.1 1.5
v 2.8 1.2 1.5
v 2.7 1.1 1.6
v 2.7 1.2 1.6
v 2.8 1.1 1.6
v 2.8 1.2 1.6
v 2.2 0.9 1.2
v 2.2 1.4 1.2
v 2.3 0.8 1.2
v 2.3 0.9 1.2
v 2.3 1.4 1.2
v 2.3 1.5 1.2
v 2.4 0.7 1.2
v 2.4 0.8 1.2
v 2.4 1 1.2
v 2.4 1.3 1.2
v 2.4 1.5 1.2
v 2.4 1.6 1.2
v 2.5 0.6 1.2
v 2.5 0.7 1.2
v 2.5 0.9 1.2
v 2.5 1 1.2
v 2.5 1.3 1.2
v 2.5 1.4 1.2
v 2.5 1.6 1.2
v 2.5 1.7 1.2
v 2.6 0.8 1.2
v 2.6 0.9 1.2
v 2.6 1.4 1.2
v 2.6 1.5 1.2
v 2.9 0.8 1.2
v 2.9 0.9 1.2
v 2.9 1.4 1.2
v 2.9 1.5 1.2
v 3 0.6 1.2
v 3 0.7 1.2
v 3 0.9 1.2
v 3 1 1.2
v 3 1.3 1.2
v 3 1.4 1.2
v 3 1.6 1.2
v 3 1.7 1.2
v 3.1 0.7 1.2
v 3.1 0.8 1.2
v 3.1 1 1.2
v 3.1 1.3 1.2
v 3.1 1.5 1.2
v 3.1 1.6 1.2
v 3.2 0.8 1.2
v 3.2 0.9 1.2
v 3.2 1.4 1.2
v 3.2 1.5 1.2
v 3.3 0.9 1.2
v 3.3 1.4 1.2
v 2.5 0.6 1.7
v 3 0.6 1.7
v 2.5 0.6 1.2
v 3 0.6 1.2
v 2.4 0.7 1.7
v 2.5 0.7 1.7
v 3 0.7 1.7
v 3.1 0.7 1.7
v 2.4 0.7 1.2
v 2.5 0.7 1.2
v 3 0.7 1.2
v 3.1 0.7 1.2
v 2.3 0.8 1.7
v 2.4 0.8 1.7
v 3.1 0.8 1.7
v 3.2 0.8 1.7
v 2.3 0.8 1.2
v 2.4 0.8 1.2
v 3.1 0.8 1.2
v 3.2 0.8 1.2
v 2.6 0.9 1.8
v 2.9 0.9 1.8
v 2.2 0.9 1.7
v 2.3 0.9 1.7
v 2.6 0.9 1.7
v 2.9 0.9 1.7
v 3.2 0.9 1.7
v 3.3 0.9 1.7
v 2.2 0.9 1.2
v 2.3 0.9 1.2
v 3.2 0.9 1.2
v 3.3 0.9 1.2
v 2.5 1 1.8
v 2.6 1 1.8
v 2.9 1 1.8
v 3 1 1.8
v 2.5 1 1.7
v 2.6 1 1.7
v 2.9 1 1.7
v 3 1 1.7
v 2.7 1.2 1.6
v 2.8 1.2 1.6
v 2.7 1.2 1.5
v 2.8 1.2 1.5
v 2.7 1.1 1.6
v 2.8 1.1 1.6
v 2.7 1.1 1.5
v 2.8 1.1 1.5
v 2.5 1.3 1.8
v 2.6 1.3 1.8
v 2.9 1.3 1.8
v 3 1.3 1.8
v 2.5 1.3 1.7
v 2.6 1.3 1.7
v 2.9 1.3 1.7
v 3 1.3 1.7
v 2.6 1.4 1.8
v 2.9 1.4 1.8
v 2.2 1.4 1.7
v 2.3 1.4 1.7
v 2.6 1.4 1.7
v 2.9 1.4 1.7
v 3.2 1.4 1.7
v 3.3 1.4 1.7
v 2.2 1.4 1.2
v 2.3 1.4 1.2
v 3.2 1.4 1.2
v 3.3 1.4 1.2
v 2.3 1.5 1.7
v 2.5 1.5 1.7
v 3.1 1.5 1.7
v 3.2 1.5 1.7
v 2.4 1.5 1.6
v 2.5 1.5 1.6
v 2.3 1.5 1.2
v 2.4 1.5 1.2
v 3.1 1.5 1.2
v 3.2 1.5 1.2
v 3 1.6 1.7
v 3.1 1.6 1.7
v 2.4 1.6 1.6
v 2.5 1.6 1.6
v 2.4 1.6 1.2
v 2.5 1.6 1.2
v 3 1.6 1.2
v 3.1 1.6 1.2
v 2.5 1.7 1.7
v 3 1.7 1.7
v 2.5 1.7 1.2
v 3 1.7 1.2

# faces
f 3/6/1 2/6/1 1/6/1
f 4/6/1 2/6/1 3/6/1
f 7/6/1 6/6/1 5/6/1
f 8/6/1 6/6/1 7/6/1
f 11/6/1 10/6/1 9/6/1
f 12/6/1 10/6/1 11/6/1
f 15/6/1 14/6/1 13/6/1
f 16/6/1 14/6/1 15/6/1
f 19/6/1 18/6/1 17/6/1
f 20/6/1 18/6/1 19/6/1
f 23/6/1 22/6/1 21/6/1
f 24/6/1 22/6/1 23/6/1
f 27/4/1 26/4/1 25/4/1
f 28/4/1 26/4/1 27/4/1
f 31/6/1 30/6/1 29/6/1
f 33/6/1 31/6/1 29/6/1
f 33/6/1 32/6/1 31/6/1
f 34/6/1 32/6/1 33/6/1
f 37/4/1 36/4/1 35/4/1
f 38/4/1 36/4/1 37/4/1
f 41/4/1 40/4/1 39/4/1
f 42/4/1 40/4/1 41/4/1
f 45/3/1 44/3/1 43/3/1
f 46/3/1 44/3/1 45/3/1
f 47/3/2 48/3/2 49/3/2
f 49/3/2 48/3/2 50/3/2
f 51/4/2 52/4/2 53/4/2
f 53/4/2 52/4/2 54/4/2
f 55/4/2 56/4/2 57/4/2
f 57/4/2 56/4/2 58/4/2
f 59/6/2 60/6/2 61/6/2
f 61/6/2 60/6/2 62/6/2
f 63/4/2 64/4/2 65/4/2
f 65/4/2 64/4/2 66/4/2
f 67/6/2 68/6/2 69/6/2
f 69/6/2 68/6/2 70/6/2
f 71/6/2 72/6/2 73/6/2
f 73/6/2 72/6/2 74/6/2
f 75/6/2 76/6/2 77/6/2
f 77/6/2 76/6/2 78/6/2
f 79/6/2 80/6/2 81/6/2
f 81/6/2 80/6/2 82/6/2
f 83/6/2 84/6/2 85/6/2
f 85/6/2 84/6/2 86/6/2
f 87/6/2 88/6/2 89/6/2
f 89/6/2 88/6/2 90/6/2
f 94/4/3 92/4/3 91/4/3
f 95/4/3 92/4/3 94/4/3
f 96/4/3 92/4/3 95/4/3
f 97/4/3 92/4/3 96/4/3
f 99/4/3 94/4/3 93/4/3
f 99/4/3 95/4/3 94/4/3
f 100/5/3 96/5/3 95/5/3
f 100/4/3 95/4/3 99/4/3
f 101/4/3 98/4/3 97/4/3
f 101/5/3 96/5/3 100/5/3
f 101/4/3 97/4/3 96/4/3
f 102/4/3 98/4/3 101/4/3
f 103/5/3 100/5/3 99/5/3
f 103/4/3 99/4/3 93/4/3
f 104/2/3 101/2/3 100/2/3
f 104/5/3 100/5/3 103/5/3
f 105/5/3 102/5/3 101/5/3
f 105/2/3 101/2/3 104/2/3
f 106/4/3 98/4/3 102/4/3
f 106/5/3 102/5/3 105/5/3
f 107/4/3 104/4/3 103/4/3
f 107/4/3 103/4/3 93/4/3
f 108/4/3 104/4/3 107/4/3
f 109/5/3 105/5/3 104/5/3
f 109/4/3 104/4/3 108/4/3
f 110/4/3 106/4/3 105/4/3
f 110/5/3 105/5/3 109/5/3
f 111/4/3 98/4/3 106/4/3
f 111/4/3 106/4/3 110/4/3
f 112/4/3 98/4/3 111/4/3
f 113/4/3 110/4/3 109/4/3
f 113/4/3 111/4/3 110/4/3
f 113/4/3 109/4/3 108/4/3
f 114/4/3 111/4/3 113/4/3
f 118/6/3 116/6/3 115/6/3
f 119/6/3 116/6/3 118/6/3
f 122/6/3 118/6/3 117/6/3
f 122/6/3 120/6/3 119/6/3
f 122/6/3 119/6/3 118/6/3
f 123/6/3 120/6/3 122/6/3
f 124/6/3 120/6/3 123/6/3
f 126/6/3 122/6/3 121/6/3
f 126/6/3 123/6/3 122/6/3
f 127/6/3 123/6/3 126/6/3
f 128/3/3 124/3/3 123/3/3
f 128/6/3 123/6/3 127/6/3
f 129/6/3 120/6/3 124/6/3
f 129/3/3 124/3/3 128/3/3
f 130/6/3 120/6/3 129/6/3
f 131/6/3 120/6/3 130/6/3
f 133/6/3 127/6/3 126/6/3
f 133/6/3 126/6/3 125/6/3
f 134/3/3 128/3/3 127/3/3
f 134/6/3 127/6/3 133/6/3
f 135/3/3 128/3/3 134/3/3
f 136/3/3 130/3/3 129/3/3
f 137/6/3 132/6/3 131/6/3
f 137/3/3 130/3/3 136/3/3
f 137/6/3 131/6/3 130/6/3
f 138/6/3 132/6/3 137/6/3
f 139/6/3 133/6/3 125/6/3
f 139/3/3 134/3/3 133/3/3
f 140/3/3 134/3/3 139/3/3
f 143/3/3 138/3/3 137/3/3
f 144/6/3 132/6/3 138/6/3
f 144/3/3 138/3/3 143/3/3
f 145/6/3 139/6/3 125/6/3
f 145/6/3 140/6/3 139/6/3
f 146/6/3 140/6/3 145/6/3
f 147/3/3 141/3/3 140/3/3
f 147/6/3 140/6/3 146/6/3
f 148/3/3 141/3/3 147/3/3
f 149/3/3 143/3/3 142/3/3
f 150/6/3 144/6/3 143/6/3
f 150/3/3 143/3/3 149/3/3
f 151/6/3 132/6/3 144/6/3
f 151/6/3 144/6/3 150/6/3
f 152/6/3 132/6/3 151/6/3
f 153/6/3 148/6/3 147/6/3
f 153/6/3 147/6/3 146/6/3
f 154/6/3 148/6/3 153/6/3
f 155/3/3 149/3/3 148/3/3
f 155/6/3 148/6/3 154/6/3
f 156/6/3 151/6/3 150/6/3
f 156/3/3 149/3/3 155/3/3
f 156/6/3 150/6/3 149/6/3
f 157/6/3 151/6/3 156/6/3
f 158/6/3 151/6/3 157/6/3
f 159/6/3 155/6/3 154/6/3
f 159/6/3 157/6/3 156/6/3
f 159/6/3 156/6/3 155/6/3
f 160/6/3 157/6/3 159/6/3
f 161/6/3 157/6/3 160/6/3
f 162/6/3 157/6/3 161/6/3
f 163/6/3 161/6/3 160/6/3
f 164/6/3 161/6/3 163/6/3
f 167/6/3 166/6/3 165/6/3
f 168/6/3 166/6/3 167/6/3
f 171/3/3 170/3/3 169/3/3
f 172/3/3 170/3/3 171/3/3
f 173/1/4 174/1/4 175/1/4
f 175/1/4 174/1/4 176/1/4
f 177/6/4 178/6/4 180/6/4
f 180/6/4 178/6/4 181/6/4
f 179/6/4 180/6/4 184/6/4
f 181/6/4 182/6/4 184/6/4
f 180/6/4 181/6/4 184/6/4
f 184/6/4 182/6/4 185/6/4
f 185/6/4 182/6/4 186/6/4
f 186/6/4 182/6/4 187/6/4
f 183/6/4 184/6/4 190/6/4
f 184/6/4 185/6/4 190/6/4
f 190/6/4 185/6/4 191/6/4
f 185/3/4 186/3/4 192/3/4
f 191/6/4 185/6/4 192/6/4
f 187/6/4 188/6/4 193/6/4
f 192/3/4 186/3/4 193/3/4
f 186/6/4 187/6/4 193/6/4
f 193/6/4 188/6/4 194/6/4
f 194/6/4 188/6/4 195/6/4
f 189/6/4 190/6/4 197/6/4
f 190/6/4 191/6/4 197/6/4
f 191/3/4 192/3/4 198/3/4
f 197/6/4 191/6/4 198/6/4
f 192/3/4 193/3/4 198/3/4
f 193/3/4 194/3/4 198/3/4
f 195/6/4 196/6/4 199/6/4
f 198/3/4 194/3/4 199/3/4
f 194/6/4 195/6/4 199/6/4
f 199/6/4 196/6/4 200/6/4
f 189/6/4 197/6/4 201/6/4
f 197/3/4 198/3/4 201/3/4
f 199/3/4 200/3/4 201/3/4
f 198/3/4 199/3/4 201/3/4
f 201/3/4 200/3/4 202/3/4
f 202/3/4 200/3/4 203/3/4
f 200/6/4 196/6/4 204/6/4
f 203/3/4 200/3/4 204/3/4
f 189/6/4 201/6/4 205/6/4
f 201/6/4 202/6/4 205/6/4
f 205/6/4 202/6/4 206/6/4
f 202/3/4 203/3/4 207/3/4
f 206/6/4 202/6/4 207/6/4
f 207/3/4 203/3/4 208/3/4
f 208/3/4 203/3/4 209/3/4
f 203/6/4 204/6/4 210/6/4
f 209/3/4 203/3/4 210/3/4
f 204/6/4 196/6/4 211/6/4
f 210/6/4 204/6/4 211/6/4
f 211/6/4 196/6/4 212/6/4
f 206/6/4 207/6/4 213/6/4
f 207/6/4 208/6/4 213/6/4
f 213/6/4 208/6/4 214/6/4
f 208/3/4 209/3/4 215/3/4
f 214/6/4 208/6/4 215/6/4
f 209/6/4 210/6/4 216/6/4
f 215/3/4 209/3/4 216/3/4
f 210/6/4 211/6/4 216/6/4
f 216/6/4 211/6/4 217/6/4
f 217/6/4 211/6/4 218/6/4
f 214/6/4 215/6/4 219/6/4
f 216/6/4 217/6/4 219/6/4
f 215/6/4 216/6/4 219/6/4
f 219/6/4 217/6/4 220/6/4
f 220/6/4 217/6/4 221/6/4
f 221/6/4 217/6/4 222/6/4
f 220/6/4 221/6/4 223/6/4
f 223/6/4 221/6/4 224/6/4
f 227/6/5 226/6/5 225/6/5
f 228/6/5 226/6/5 227/6/5
f 233/6/5 230/6/5 229/6/5
f 234/6/5 230/6/5 233/6/5
f 235/6/5 232/6/5 231/6/5
f 236/6/5 232/6/5 235/6/5
f 241/6/5 238/6/5 237/6/5
f 242/6/5 238/6/5 241/6/5
f 243/6/5 240/6/5 239/6/5
f 244/6/5 240/6/5 243/6/5
f 249/4/5 246/4/5 245/4/5
f 250/4/5 246/4/5 249/4/5
f 253/6/5 248/6/5 247/6/5
f 254/6/5 248/6/5 253/6/5
f 255/6/5 252/6/5 251/6/5
f 256/6/5 252/6/5 255/6/5
f 261/4/5 258/4/5 257/4/5
f 262/4/5 258/4/5 261/4/5
f 263/4/5 260/4/5 259/4/5
f 264/4/5 260/4/5 263/4/5
f 267/3/5 266/3/5 265/3/5
f 268/3/5 266/3/5 267/3/5
f 269/3/6 270/3/6 271/3/6
f 271/3/6 270/3/6 272/3/6
f 273/4/6 274/4/6 277/4/6
f 277/4/6 274/4/6 278/4/6
f 275/4/6 276/4/6 279/4/6
f 279/4/6 276/4/6 280/4/6
f 281/4/6 282/4/6 285/4/6
f 285/4/6 282/4/6 286/4/6
f 283/6/6 284/6/6 289/6/6
f 289/6/6 284/6/6 290/6/6
f 287/6/6 288/6/6 291/6/6
f 291/6/6 288/6/6 292/6/6
f 293/6/6 294/6/6 297/6/6
f 297/6/6 294/6/6 298/6/6
f 293/6/6 297/6/6 299/6/6
f 299/6/6 297/6/6 300/6/6
f 295/6/6 296/6/6 301/6/6
f 301/6/6 296/6/6 302/6/6
f 305/6/6 306/6/6 307/6/6
f 307/6/6 306/6/6 308/6/6
f 303/6/6 304/6/6 309/6/6
f 309/6/6 304/6/6 310/6/6
f 311/6/6 312/6/6 313/6/6
f 313/6/6 312/6/6 314/6/6
