# MagicaVoxel @ Ephtracy

# group
o 

# material
mtllib RoadStraight.mtl
usemtl palette

# normals
vn -1 0 0
vn 1 0 0
vn 0 0 1
vn 0 0 -1
vn 0 -1 0
vn 0 1 0

# texcoords
vt 0.447266 0.5
vt 0.958984 0.5
vt 0.990234 0.5

# verts
v 0 2 0
v 0 2 -4
v 0 2.1 0
v 0 2.1 -4
v 4 2 0
v 4 2 -4
v 4 2.1 0
v 4 2.1 -4
v 0 2 0
v 0 2.1 0
v 0.5 2 0
v 0.5 2.1 0
v 1.9 2 0
v 1.9 2.1 0
v 2.1 2 0
v 2.1 2.1 0
v 3.5 2 0
v 3.5 2.1 0
v 4 2 0
v 4 2.1 0
v 0 2 -4
v 0 2.1 -4
v 0.5 2 -4
v 0.5 2.1 -4
v 1.9 2 -4
v 1.9 2.1 -4
v 2.1 2 -4
v 2.1 2.1 -4
v 3.5 2 -4
v 3.5 2.1 -4
v 4 2 -4
v 4 2.1 -4
v 0 2 0
v 0.5 2 0
v 1.9 2 0
v 2.1 2 0
v 3.5 2 0
v 4 2 0
v 0 2 -4
v 0.5 2 -4
v 1.9 2 -4
v 2.1 2 -4
v 3.5 2 -4
v 4 2 -4
v 0 2.1 0
v 0.5 2.1 0
v 1.9 2.1 0
v 2.1 2.1 0
v 3.5 2.1 0
v 4 2.1 0
v 0 2.1 -4
v 0.5 2.1 -4
v 1.9 2.1 -4
v 2.1 2.1 -4
v 3.5 2.1 -4
v 4 2.1 -4

# faces
f 3/1/1 2/1/1 1/1/1
f 4/1/1 2/1/1 3/1/1
f 5/1/2 6/1/2 7/1/2
f 7/1/2 6/1/2 8/1/2
f 11/1/3 10/1/3 9/1/3
f 12/1/3 10/1/3 11/1/3
f 13/3/3 12/3/3 11/3/3
f 14/3/3 12/3/3 13/3/3
f 15/2/3 14/2/3 13/2/3
f 16/2/3 14/2/3 15/2/3
f 17/3/3 16/3/3 15/3/3
f 18/3/3 16/3/3 17/3/3
f 19/1/3 18/1/3 17/1/3
f 20/1/3 18/1/3 19/1/3
f 21/1/4 22/1/4 23/1/4
f 23/1/4 22/1/4 24/1/4
f 23/3/4 24/3/4 25/3/4
f 25/3/4 24/3/4 26/3/4
f 25/2/4 26/2/4 27/2/4
f 27/2/4 26/2/4 28/2/4
f 27/3/4 28/3/4 29/3/4
f 29/3/4 28/3/4 30/3/4
f 29/1/4 30/1/4 31/1/4
f 31/1/4 30/1/4 32/1/4
f 39/1/5 34/1/5 33/1/5
f 40/3/5 35/3/5 34/3/5
f 40/1/5 34/1/5 39/1/5
f 41/2/5 36/2/5 35/2/5
f 41/3/5 35/3/5 40/3/5
f 42/3/5 37/3/5 36/3/5
f 42/2/5 36/2/5 41/2/5
f 43/1/5 38/1/5 37/1/5
f 43/3/5 37/3/5 42/3/5
f 44/1/5 38/1/5 43/1/5
f 45/1/6 46/1/6 51/1/6
f 46/3/6 47/3/6 52/3/6
f 51/1/6 46/1/6 52/1/6
f 47/2/6 48/2/6 53/2/6
f 52/3/6 47/3/6 53/3/6
f 48/3/6 49/3/6 54/3/6
f 53/2/6 48/2/6 54/2/6
f 49/1/6 50/1/6 55/1/6
f 54/3/6 49/3/6 55/3/6
f 55/1/6 50/1/6 56/1/6
