# MagicaVoxel @ Ephtracy

# group
o 

# material
mtllib RoadTurn.mtl
usemtl palette

# normals
vn -1 0 0
vn 1 0 0
vn 0 0 1
vn 0 0 -1
vn 0 -1 0
vn 0 1 0

# texcoords
vt 0.447266 0.5
vt 0.958984 0.5
vt 0.990234 0.5

# verts
v 0 2 0
v 0 2 -4
v 0 2.1 0
v 0 2.1 -4
v 4 2 0
v 4 2 -0.5
v 4 2 -1.9
v 4 2 -2.1
v 4 2 -3.5
v 4 2 -4
v 4 2.1 0
v 4 2.1 -0.5
v 4 2.1 -1.9
v 4 2.1 -2.1
v 4 2.1 -3.5
v 4 2.1 -4
v 0 2 0
v 0 2.1 0
v 0.5 2 0
v 0.5 2.1 0
v 1.9 2 0
v 1.9 2.1 0
v 2.1 2 0
v 2.1 2.1 0
v 3.5 2 0
v 3.5 2.1 0
v 4 2 0
v 4 2.1 0
v 0 2 -4
v 0 2.1 -4
v 4 2 -4
v 4 2.1 -4
v 0 2 0
v 0.5 2 0
v 1.9 2 0
v 2.1 2 0
v 3.5 2 0
v 4 2 0
v 3.5 2 -0.5
v 4 2 -0.5
v 2.1 2 -1.9
v 4 2 -1.9
v 1.9 2 -2.1
v 4 2 -2.1
v 0.5 2 -3.5
v 4 2 -3.5
v 0 2 -4
v 4 2 -4
v 0 2.1 0
v 0.5 2.1 0
v 1.9 2.1 0
v 2.1 2.1 0
v 3.5 2.1 0
v 4 2.1 0
v 3.5 2.1 -0.5
v 4 2.1 -0.5
v 2.1 2.1 -1.9
v 4 2.1 -1.9
v 1.9 2.1 -2.1
v 4 2.1 -2.1
v 0.5 2.1 -3.5
v 4 2.1 -3.5
v 0 2.1 -4
v 4 2.1 -4

# faces
f 3/1/1 2/1/1 1/1/1
f 4/1/1 2/1/1 3/1/1
f 5/1/2 6/1/2 11/1/2
f 6/3/2 7/3/2 12/3/2
f 11/1/2 6/1/2 12/1/2
f 7/2/2 8/2/2 13/2/2
f 12/3/2 7/3/2 13/3/2
f 8/3/2 9/3/2 14/3/2
f 13/2/2 8/2/2 14/2/2
f 9/1/2 10/1/2 15/1/2
f 14/3/2 9/3/2 15/3/2
f 15/1/2 10/1/2 16/1/2
f 19/1/3 18/1/3 17/1/3
f 20/1/3 18/1/3 19/1/3
f 21/3/3 20/3/3 19/3/3
f 22/3/3 20/3/3 21/3/3
f 23/2/3 22/2/3 21/2/3
f 24/2/3 22/2/3 23/2/3
f 25/3/3 24/3/3 23/3/3
f 26/3/3 24/3/3 25/3/3
f 27/1/3 26/1/3 25/1/3
f 28/1/3 26/1/3 27/1/3
f 29/1/4 30/1/4 31/1/4
f 31/1/4 30/1/4 32/1/4
f 39/3/5 37/3/5 36/3/5
f 39/1/5 38/1/5 37/1/5
f 40/1/5 38/1/5 39/1/5
f 41/2/5 36/2/5 35/2/5
f 41/3/5 39/3/5 36/3/5
f 41/3/5 40/3/5 39/3/5
f 42/3/5 40/3/5 41/3/5
f 43/3/5 35/3/5 34/3/5
f 43/2/5 41/2/5 35/2/5
f 43/2/5 42/2/5 41/2/5
f 44/2/5 42/2/5 43/2/5
f 45/1/5 34/1/5 33/1/5
f 45/3/5 43/3/5 34/3/5
f 45/3/5 44/3/5 43/3/5
f 46/3/5 44/3/5 45/3/5
f 47/1/5 45/1/5 33/1/5
f 47/1/5 46/1/5 45/1/5
f 48/1/5 46/1/5 47/1/5
f 52/3/6 53/3/6 55/3/6
f 53/1/6 54/1/6 55/1/6
f 55/1/6 54/1/6 56/1/6
f 51/2/6 52/2/6 57/2/6
f 52/3/6 55/3/6 57/3/6
f 55/3/6 56/3/6 57/3/6
f 57/3/6 56/3/6 58/3/6
f 50/3/6 51/3/6 59/3/6
f 51/2/6 57/2/6 59/2/6
f 57/2/6 58/2/6 59/2/6
f 59/2/6 58/2/6 60/2/6
f 49/1/6 50/1/6 61/1/6
f 50/3/6 59/3/6 61/3/6
f 59/3/6 60/3/6 61/3/6
f 61/3/6 60/3/6 62/3/6
f 49/1/6 61/1/6 63/1/6
f 61/1/6 62/1/6 63/1/6
f 63/1/6 62/1/6 64/1/6
