# MagicaVoxel @ Ephtracy

# group
o 

# material
mtllib RoadTIntersection.mtl
usemtl palette

# normals
vn -1 0 0
vn 1 0 0
vn 0 0 1
vn 0 0 -1
vn 0 -1 0
vn 0 1 0

# texcoords
vt 0.447266 0.5
vt 0.958984 0.5
vt 0.990234 0.5

# verts
v 0 2 0
v 0 2 -0.5
v 0 2 -1.9
v 0 2 -2.1
v 0 2 -3.5
v 0 2 -4
v 0 2.1 0
v 0 2.1 -0.5
v 0 2.1 -1.9
v 0 2.1 -2.1
v 0 2.1 -3.5
v 0 2.1 -4
v 4 2 0
v 4 2 -0.5
v 4 2 -1.9
v 4 2 -2.1
v 4 2 -3.5
v 4 2 -4
v 4 2.1 0
v 4 2.1 -0.5
v 4 2.1 -1.9
v 4 2.1 -2.1
v 4 2.1 -3.5
v 4 2.1 -4
v 0 2 0
v 0 2.1 0
v 0.5 2 0
v 0.5 2.1 0
v 1.9 2 0
v 1.9 2.1 0
v 2.1 2 0
v 2.1 2.1 0
v 3.5 2 0
v 3.5 2.1 0
v 4 2 0
v 4 2.1 0
v 0 2 -4
v 0 2.1 -4
v 4 2 -4
v 4 2.1 -4
v 0 2 0
v 0.5 2 0
v 1.9 2 0
v 2.1 2 0
v 3.5 2 0
v 4 2 0
v 0 2 -0.5
v 0.5 2 -0.5
v 3.5 2 -0.5
v 4 2 -0.5
v 0 2 -1.9
v 1.9 2 -1.9
v 2.1 2 -1.9
v 4 2 -1.9
v 0 2 -2.1
v 4 2 -2.1
v 0 2 -3.5
v 4 2 -3.5
v 0 2 -4
v 4 2 -4
v 0 2.1 0
v 0.5 2.1 0
v 1.9 2.1 0
v 2.1 2.1 0
v 3.5 2.1 0
v 4 2.1 0
v 0 2.1 -0.5
v 0.5 2.1 -0.5
v 3.5 2.1 -0.5
v 4 2.1 -0.5
v 0 2.1 -1.9
v 1.9 2.1 -1.9
v 2.1 2.1 -1.9
v 4 2.1 -1.9
v 0 2.1 -2.1
v 4 2.1 -2.1
v 0 2.1 -3.5
v 4 2.1 -3.5
v 0 2.1 -4
v 4 2.1 -4

# faces
f 7/1/1 2/1/1 1/1/1
f 8/3/1 3/3/1 2/3/1
f 8/1/1 2/1/1 7/1/1
f 9/2/1 4/2/1 3/2/1
f 9/3/1 3/3/1 8/3/1
f 10/3/1 5/3/1 4/3/1
f 10/2/1 4/2/1 9/2/1
f 11/1/1 6/1/1 5/1/1
f 11/3/1 5/3/1 10/3/1
f 12/1/1 6/1/1 11/1/1
f 13/1/2 14/1/2 19/1/2
f 14/3/2 15/3/2 20/3/2
f 19/1/2 14/1/2 20/1/2
f 15/2/2 16/2/2 21/2/2
f 20/3/2 15/3/2 21/3/2
f 16/3/2 17/3/2 22/3/2
f 21/2/2 16/2/2 22/2/2
f 17/1/2 18/1/2 23/1/2
f 22/3/2 17/3/2 23/3/2
f 23/1/2 18/1/2 24/1/2
f 27/1/3 26/1/3 25/1/3
f 28/1/3 26/1/3 27/1/3
f 29/3/3 28/3/3 27/3/3
f 30/3/3 28/3/3 29/3/3
f 31/2/3 30/2/3 29/2/3
f 32/2/3 30/2/3 31/2/3
f 33/3/3 32/3/3 31/3/3
f 34/3/3 32/3/3 33/3/3
f 35/1/3 34/1/3 33/1/3
f 36/1/3 34/1/3 35/1/3
f 37/1/4 38/1/4 39/1/4
f 39/1/4 38/1/4 40/1/4
f 47/1/5 42/1/5 41/1/5
f 48/3/5 43/3/5 42/3/5
f 48/1/5 42/1/5 47/1/5
f 49/1/5 46/1/5 45/1/5
f 49/3/5 45/3/5 44/3/5
f 50/1/5 46/1/5 49/1/5
f 51/3/5 48/3/5 47/3/5
f 52/3/5 43/3/5 48/3/5
f 52/3/5 48/3/5 51/3/5
f 52/2/5 44/2/5 43/2/5
f 53/3/5 50/3/5 49/3/5
f 53/2/5 44/2/5 52/2/5
f 53/3/5 49/3/5 44/3/5
f 54/3/5 50/3/5 53/3/5
f 55/2/5 52/2/5 51/2/5
f 55/2/5 53/2/5 52/2/5
f 55/2/5 54/2/5 53/2/5
f 56/2/5 54/2/5 55/2/5
f 57/3/5 56/3/5 55/3/5
f 58/3/5 56/3/5 57/3/5
f 59/1/5 58/1/5 57/1/5
f 60/1/5 58/1/5 59/1/5
f 61/1/6 62/1/6 67/1/6
f 62/3/6 63/3/6 68/3/6
f 67/1/6 62/1/6 68/1/6
f 65/1/6 66/1/6 69/1/6
f 64/3/6 65/3/6 69/3/6
f 69/1/6 66/1/6 70/1/6
f 67/3/6 68/3/6 71/3/6
f 68/3/6 63/3/6 72/3/6
f 71/3/6 68/3/6 72/3/6
f 63/2/6 64/2/6 72/2/6
f 69/3/6 70/3/6 73/3/6
f 72/2/6 64/2/6 73/2/6
f 64/3/6 69/3/6 73/3/6
f 73/3/6 70/3/6 74/3/6
f 71/2/6 72/2/6 75/2/6
f 72/2/6 73/2/6 75/2/6
f 73/2/6 74/2/6 75/2/6
f 75/2/6 74/2/6 76/2/6
f 75/3/6 76/3/6 77/3/6
f 77/3/6 76/3/6 78/3/6
f 77/1/6 78/1/6 79/1/6
f 79/1/6 78/1/6 80/1/6
